<?xml version="1.0" encoding="utf-8"?>
<!-- Generator: Adobe Illustrator 19.0.0, SVG Export Plug-In . SVG Version: 6.00 Build 0)  -->
<svg version="1.1" id="Layer_1" xmlns="http://www.w3.org/2000/svg" xmlns:xlink="http://www.w3.org/1999/xlink" x="0px" y="0px"
	 viewBox="0 0 269.8 98.6" style="enable-background:new 0 0 269.8 98.6;" xml:space="preserve">
<style type="text/css">
	.st0{fill:#656565;}
</style>
<g id="XMLID_1_">
	<g id="XMLID_2_">
		<g id="XMLID_3_">
			<path id="XMLID_4_" class="st0" d="M88.3,57.4c-0.2-0.6-0.6-0.9-1.1-0.9c-0.4,0-0.9,0.2-1.5,1c-3,4.1-13.9,14.7-17.9,14.7
				c-0.3,0-0.4-0.1-0.4-0.2c-0.2-0.3-0.7-1.4,0.2-5.3c1.7-6.6,4.6-14.4,6.1-17.6c0.7-1.5,0.4-2.4,0.1-2.9c-0.4-0.6-1.1-0.9-2.1-0.9
				c-2.7,0-4.4,1.3-6.8,3l-0.6,0.4C60.9,51.5,53,58.9,50.6,61.5c4.3-15.8,9-27.3,13.9-34.2c1.3-1.6,0.7-2.9-0.1-3.9
				c-1-1.5-2-1.7-2.5-1.7c-1.2,0-2.4,1.2-3.8,3.9c-2.2,3.4-6.2,12.9-8.7,20.6C47.5,51.8,45.4,59,44,64.3c-0.4,0.1-0.8,0.3-1.3,0.7
				c-4.7,3.8-16.9,12.8-27.4,12.8c-4.5,0-6.9-2.7-6.9-7.8c0-7.8,3.9-17.3,10.6-26.1c4.2-5.3,11.1-10.6,16.2-10.6
				c1.3,0,1.9,0.7,1.9,1.1c0,0.6-0.1,0.7-0.5,1.5l-0.1,0.2c-0.1,0.4-0.2,1,0.2,1.5c0.3,0.3,0.6,0.5,1.2,0.5c0.2,0,0.3,0,0.6-0.1
				c1.4-0.3,5.6-2.4,5.6-6.3c0-4-3.6-5.8-6.9-5.8H37c-3.1,0-6,0.7-9.3,2.4C11.1,36,0,56,0,69.9c0,7.5,3.1,15.6,12,15.6
				c5.6,0,11.5-1.8,18.1-5.5c5.2-2.9,9.4-6.2,12.2-8.8c-0.1,0.3-0.1,0.5-0.1,0.7c-0.2,1-0.6,4.5,0.6,5.9c0.3,0.4,0.7,0.6,1.2,0.6
				c2,0,3.5-1.5,3.8-3.7c0.2-1.1,0.7-2.4,1.8-4.4c1.5-2.5,7.1-9.5,15.1-15.8c0.4-0.3,0.6-0.4,0.8-0.5c0,0.1-0.1,0.3-0.1,0.6
				c-0.8,2.3-2.3,7.5-3.2,12.1c-1,5.7-0.8,9.5,0.7,11.2c0.6,0.7,1.4,1.1,2.3,1.1c5.2,0,18.4-10.7,22.5-18.2
				C88.3,59.2,88.6,58.2,88.3,57.4z"/>
			<path id="XMLID_5_" class="st0" d="M135.5,45.6c-0.6-0.7-1.5-1.1-2.6-1.1c-1.9,0-3.9,1.2-6.7,3.9c-4,3.9-8.2,9.9-9.8,12.2
				c0.5-2.7,1.8-7.3,2.8-8.9c0.5-0.7,1-1.6,1-2.6c0.1-0.9-0.3-2.1-1-2.8c-0.5-0.5-1-0.8-1.6-0.8c-0.9,0-2,0.8-3.5,2.5
				c-1,1-1.2,2.1-1.7,4.7c-0.8,4.7-3,16.2-4.5,20c-0.4,1.1-0.8,2.6,0.1,3.7c0.6,0.9,1.6,1.5,2.6,1.5c1.1,0,1.9-0.6,2.6-2.1
				c4-8.8,7.8-15.2,12-20.1c1.3-1.6,3.5-4.2,4.6-4.2c0.6,0,1.2,0.4,1.7,0.7c0.3,0.3,0.7,0.4,1.1,0.4c0.6,0,1.3-0.3,1.8-0.9
				c0.8-0.8,1.7-2.3,1.9-3.6C136.3,47.3,136.1,46.3,135.5,45.6z"/>
			<path id="XMLID_6_" class="st0" d="M161.7,45.6c-0.6-0.7-1.5-1.1-2.6-1.1c-1.9,0-3.9,1.2-6.7,3.9c-4,3.9-8.2,9.9-9.8,12.2
				c0.5-2.7,1.8-7.3,2.8-8.9c0.5-0.7,1-1.6,1-2.6c0.1-0.9-0.3-2.1-1-2.8c-0.5-0.5-1-0.8-1.6-0.8c-0.9,0-2,0.8-3.5,2.5
				c-1,1-1.3,2.2-1.7,4.7c-0.8,4.7-3,16.2-4.5,20c-0.4,1.1-0.8,2.6,0.1,3.7c0.6,0.9,1.6,1.5,2.6,1.5c1.1,0,1.9-0.6,2.6-2.1
				c4-8.8,7.8-15.2,12-20.1c1.3-1.6,3.5-4.2,4.6-4.2c0.6,0,1.2,0.4,1.7,0.7c0.3,0.3,0.7,0.4,1.1,0.4c0.6,0,1.3-0.3,1.8-0.9
				c0.8-0.8,1.7-2.3,1.9-3.6C162.6,47.3,162.3,46.3,161.7,45.6z"/>
			<path id="XMLID_7_" class="st0" d="M189.4,56.3c-0.2-0.6-0.6-0.9-1.1-0.9c-0.5,0-1,0.3-1.6,1c-5.8,7.5-15.3,16-19.6,16
				c-0.5,0-0.7-0.2-0.8-0.3c-0.2-0.3-0.5-1.1,0.1-3.3c1.6-5.4,4.9-13.6,8.1-18.8c1.1-1.8,0.7-3.5-0.2-4.3c-0.4-0.5-1-0.8-1.5-0.8
				c-2.4,0-7.1,6.3-8.4,9c-0.4,1.1-0.5,1.9-0.3,2.9c0.1,0.5,0.2,0.8-0.2,1.8c-0.9,2.8-2.9,9.1-3.4,10.7c-0.7,2.2-0.6,4.1,0.4,5.8
				c1.4,2.9,3,3.5,4,3.5h0.1c1.2,0,2.7-0.5,5-1.6c5-2.2,14.4-10.5,18.4-17.3C189.4,58.2,189.7,57.1,189.4,56.3z"/>
			<path id="XMLID_8_" class="st0" d="M179.4,28.5c-0.6-0.7-1.5-1.1-2.8-1.1c-2.1,0-3,1.2-3.2,4c0,1.6,0.1,2.8,0.4,3.6
				c0.3,1.5,1.2,2.7,2.6,3.5c0.5,0.3,1,0.4,1.4,0.4c0.5,0,0.8-0.2,1-0.4c0.3-0.3,0.4-0.8,0.4-1.3c0-0.9-0.1-3.9,0.6-6.5
				C180,29.9,179.8,29.2,179.4,28.5z"/>
			<path id="XMLID_9_" class="st0" d="M253.3,47.8c-3.4,0-8.1,0.3-11.4,0.4c-1.6,0.1-2.9,0.2-3.8,0.2c-0.1,0-0.1,0-0.2,0
				c0.1-0.2,0.2-0.5,0.3-0.9c0.6-1.7,2-5.1,3.9-8.8c0.7-1.4,0.7-2.6,0-3.7c-0.4-0.9-1.1-1.3-2-1.3c-1.7,0-3.6,1.7-4.1,3.1
				c-0.5,1.1-1.6,4.2-2.6,6.9c-0.7,2.1-1.4,4-1.7,4.5c-0.2,0.5-0.4,0.7-1,0.8c-0.6,0.1-1.3,0.2-1.9,0.3c-1,0.1-2,0.3-2.8,0.4
				c-1.4,0.3-2,0.6-2.8,1.5c-0.9,1-1,2.3-0.1,3.1c0.6,0.5,1.2,0.7,2,0.7c0.1,0,0.2,0,0.4,0c0.9-0.2,2.9-0.4,4-0.5c0,0,0,0,0,0
				c-0.6,1.3-2.1,5.9-3.3,9.6c-0.6,1.8-1.1,3.4-1.4,4.2c-0.8,2-1.1,3.5-1.1,4.6c0,3.3,3.3,5.3,5.6,5.3c0.8,0,1.9-0.1,3.4-0.7
				c7.4-2.8,11.6-6.5,13-7.9c0.6-0.7,0.8-1.5,0.5-2.1c-0.3-0.7-1.2-0.9-2.1-0.2c-2.1,1.4-7.6,5-11.4,5c-0.7,0-1.2-0.2-1.5-0.5
				c-0.5-0.5-0.6-1.6-0.3-3.2c0.5-3.1,2.7-9.9,4.3-13.9c0.3-0.7,0.3-0.7,1.1-0.8c8.1-1.1,13.7-2,16.2-2.7c1.1-0.3,2.2-1.3,2.1-2.2
				C254.9,48.5,254.7,47.8,253.3,47.8z"/>
			<path id="XMLID_10_" class="st0" d="M268,45.6c-0.9-0.5-1.9-0.7-3.5-0.7c-2.7,0-6.4,1.5-8.9,3.6c-2.6,2.2-5.7,6.1-5.7,9.7
				c0,1.2,0.4,2.7,0.9,3.8c0.5,1.2,1.7,3.1,2.8,4.7l0.4,0.6c1,1.4,1.6,3,1.6,3.9c0,0.6-0.9,1.2-1.7,1.4c-0.9,0.2-1.5,0.1-2.3-0.3
				c-0.4-0.2-0.7-0.4-1.2-0.4c-0.3,0-0.7,0.1-1.2,0.2c-0.9,0.4-1.7,1-2.8,2.2c-0.8,0.7-1,1.5-1.1,2.1l0,0.1l0,0.1
				c0.2,1.8,2.6,2.8,4.2,2.8c0.9,0,2.2-0.3,3.3-0.8c2-0.8,4.8-2.3,6.2-3.4c1.2-0.9,2.5-2.9,2.5-4.9c0-2.9-2.4-6.5-3.4-8
				c-1.5-2.1-2.1-3.5-2.1-5c0-3.2,5.8-7.1,10.5-7.1c2.1,0,3.4-0.9,3.4-2.2C269.8,47.2,269.2,46.3,268,45.6z"/>
			<path id="XMLID_11_" class="st0" d="M115.2,58.7c-0.4-1-1.7-1.1-2.6,0c-11.9,12.9-19.9,13.9-22,13.9c-2.2,0-3.3-1.2-3.3-3.6
				c0-1.5,0.6-3.7,1-4.7c0.5,0.4,1.3,0.8,2.3,0.8c4,0,7.5-1.7,10.8-5.3c1.9-2.1,3.1-5.2,3.1-8c0-2.8-1.7-4.8-4.2-4.9
				c-0.3-0.1-0.4-0.2-0.5-0.3c-0.1-1.1-1-2.2-2.6-2.2C93,44.5,87,53.6,87,53.7c-3.4,5.5-5.9,12.2-5.9,16c0,5.4,3.7,8.6,7.2,8.6
				c6.9,0,18-5.6,25.8-16.2C115.1,60.9,115.5,59.7,115.2,58.7z M96.7,50.6c0.9,0,1.8,0.9,1.8,2.7c0,3.3-3.9,6.4-8,6.4
				c-0.2,0-0.4,0-0.5,0c0,0,0,0,0,0C91.8,55.6,95.1,50.6,96.7,50.6z"/>
			<path id="XMLID_14_" class="st0" d="M212.9,42.8c-1.2-0.8-2.5-1.6-2.4-2c0.2-0.7,0.7-1.3,1.6-1.8c0.8-0.4,1.4-0.9,1-1.7
				c-0.8-1.4-2.2-3.1-3.3-4c-0.3-0.3-1-0.3-1.5-0.3c-1.1,0-2.2,0.5-3.1,1c1.3-3.8,5.3-10.9,11.6-20.6c2.7-4.1,4.3-6.8,4.3-8.8
				c0-1.6-1-3-3.5-4.4C216.9-0.4,215,1.3,215,2c0,0.1,0.1,0.2,0.3,0.2c0.4,0,0.6,0.2,0.6,0.6c0,1.2-1.3,4.2-3.2,8
				c-3.8,7.6-9.5,18.8-9.5,24c0,0.1,0,0.3,0,0.4c-16.1,10.6-25.7,24.4-25.7,34.5c0,2.5,0.5,4.7,1.7,6.6c2.7,3.8,5.3,4.7,10.2,4.7
				c1.3,0,3.6-0.3,5.1-0.7c13.9-2.9,25.6-15,25.6-25.7C220.1,50.1,218.1,45.9,212.9,42.8z M195.6,75.4c-2.8,1.2-5.2,1.7-7.1,1.7
				c-3.7,0-5.8-2.5-5.2-6.6c0.9-8,11.1-19.1,18.2-24.4c0.1,0.3,0.2,0.7,0.5,1.1c0.5,0.8,1.7,1.5,2.8,1.5c0.7,0,1.1-0.3,1.8-1.2
				c0.7-0.9,1.2-2.9,1.4-4.4c1.4,0.5,3.9,2,4.8,2.6c2.7,1.6,4,4.1,4,7.2C216.7,60,209.1,69.7,195.6,75.4z"/>
		</g>
	</g>
	<g id="XMLID_17_">
		<g id="XMLID_18_">
			<path id="XMLID_19_" class="st0" d="M85.1,96.6c0.5,0.3,1.2,0.5,2,0.5c0.8,0,1.3-0.3,1.3-0.9c0-0.5-0.4-0.8-1.4-1.1
				c-1.3-0.5-2.2-1.2-2.2-2.4c0-1.4,1.2-2.4,3.1-2.4c0.9,0,1.6,0.2,2.1,0.4l-0.4,1.5c-0.3-0.2-0.9-0.4-1.7-0.4
				c-0.8,0-1.2,0.4-1.2,0.8c0,0.5,0.4,0.7,1.5,1.2c1.4,0.5,2.1,1.3,2.1,2.4c0,1.4-1,2.5-3.3,2.5c-0.9,0-1.8-0.3-2.3-0.5L85.1,96.6z"
				/>
		</g>
		<g id="XMLID_21_">
			<path id="XMLID_22_" class="st0" d="M95.8,96.4l-0.6,2.1h-1.9l2.5-8.1h2.4l2.5,8.1h-2l-0.6-2.1H95.8z M97.8,95.1l-0.5-1.7
				c-0.1-0.5-0.3-1.1-0.4-1.6h0c-0.1,0.5-0.2,1.1-0.4,1.6l-0.5,1.7H97.8z"/>
		</g>
		<g id="XMLID_25_">
			<path id="XMLID_26_" class="st0" d="M104.2,90.4h1.8V97h3.2v1.5h-5V90.4z"/>
		</g>
		<g id="XMLID_28_">
			<path id="XMLID_29_" class="st0" d="M117.5,95.1h-3V97h3.3v1.5h-5.1v-8.1h5v1.5h-3.2v1.7h3V95.1z"/>
		</g>
		<g id="XMLID_31_">
			<path id="XMLID_32_" class="st0" d="M128.4,95.4c0-1-0.1-2.1-0.1-3.3h0c-0.3,1-0.6,2.2-0.9,3.1l-1,3.2H125l-0.9-3.1
				c-0.3-1-0.5-2.1-0.7-3.2h0c0,1.1-0.1,2.3-0.1,3.3l-0.2,3.1h-1.7l0.5-8.1h2.4l0.8,2.7c0.3,0.9,0.5,1.9,0.7,2.9h0
				c0.2-0.9,0.5-2,0.8-2.9l0.9-2.7h2.4l0.4,8.1h-1.8L128.4,95.4z"/>
		</g>
		<g id="XMLID_34_">
			<path id="XMLID_35_" class="st0" d="M140.2,90.4h1.8V94h0c0.2-0.3,0.4-0.6,0.6-0.9l1.8-2.7h2.3l-2.7,3.4l2.8,4.6h-2.1l-2-3.5
				l-0.7,0.9v2.6h-1.8V90.4z"/>
		</g>
		<g id="XMLID_37_">
			<path id="XMLID_38_" class="st0" d="M154.8,95.1h-3V97h3.3v1.5H150v-8.1h5v1.5h-3.2v1.7h3V95.1z"/>
		</g>
		<g id="XMLID_40_">
			<path id="XMLID_41_" class="st0" d="M160.6,90.4v8.1h-1.8v-8.1H160.6z"/>
		</g>
		<g id="XMLID_43_">
			<path id="XMLID_44_" class="st0" d="M164.1,97.5l3.9-5.6v0h-3.5v-1.5h5.9v1.1l-3.8,5.5v0h3.8v1.5h-6.3V97.5z"/>
		</g>
		<g id="XMLID_46_">
			<path id="XMLID_47_" class="st0" d="M178.7,95.1h-3V97h3.3v1.5h-5.1v-8.1h5v1.5h-3.2v1.7h3V95.1z"/>
		</g>
		<g id="XMLID_49_">
			<path id="XMLID_50_" class="st0" d="M182.7,90.5c0.6-0.1,1.5-0.2,2.4-0.2c1.2,0,2,0.2,2.6,0.6c0.5,0.4,0.8,0.9,0.8,1.7
				c0,1-0.7,1.7-1.4,2v0c0.6,0.2,0.9,0.8,1.1,1.5c0.3,0.9,0.5,2,0.6,2.3h-1.9c-0.1-0.2-0.3-0.9-0.6-1.9c-0.2-1-0.6-1.3-1.3-1.3h-0.5
				v3.2h-1.8V90.5z M184.5,94h0.7c0.9,0,1.5-0.5,1.5-1.2c0-0.7-0.5-1.1-1.3-1.1c-0.4,0-0.7,0-0.8,0.1V94z"/>
		</g>
		<g id="XMLID_53_">
			<path id="XMLID_54_" class="st0" d="M198.6,91.9h-2.2v-1.5h6.2v1.5h-2.2v6.6h-1.8V91.9z"/>
		</g>
		<g id="XMLID_56_">
			<path id="XMLID_57_" class="st0" d="M206,90.5c0.6-0.1,1.5-0.2,2.4-0.2c1.2,0,2,0.2,2.6,0.6c0.5,0.4,0.8,0.9,0.8,1.7
				c0,1-0.7,1.7-1.4,2v0c0.6,0.2,0.9,0.8,1.1,1.5c0.3,0.9,0.5,2,0.6,2.3h-1.9c-0.1-0.2-0.3-0.9-0.6-1.9c-0.2-1-0.6-1.3-1.3-1.3h-0.5
				v3.2H206V90.5z M207.8,94h0.7c0.9,0,1.5-0.5,1.5-1.2c0-0.7-0.5-1.1-1.3-1.1c-0.4,0-0.7,0-0.8,0.1V94z"/>
		</g>
		<g id="XMLID_60_">
			<path id="XMLID_61_" class="st0" d="M217.5,96.4l-0.6,2.1h-1.9l2.5-8.1h2.4l2.5,8.1h-2l-0.6-2.1H217.5z M219.6,95.1l-0.5-1.7
				c-0.1-0.5-0.3-1.1-0.4-1.6h0c-0.1,0.5-0.2,1.1-0.4,1.6l-0.5,1.7H219.6z"/>
		</g>
		<g id="XMLID_64_">
			<path id="XMLID_65_" class="st0" d="M225.9,98.5v-8.1h2.1l1.7,3c0.5,0.9,0.9,1.9,1.3,2.8h0c-0.1-1.1-0.1-2.2-0.1-3.4v-2.4h1.7
				v8.1h-1.9l-1.7-3.1c-0.5-0.9-1-1.9-1.4-2.9h0c0.1,1.1,0.1,2.2,0.1,3.5v2.4H225.9z"/>
		</g>
		<g id="XMLID_67_">
			<path id="XMLID_68_" class="st0" d="M236.7,96.6c0.5,0.3,1.2,0.5,2,0.5c0.8,0,1.3-0.3,1.3-0.9c0-0.5-0.4-0.8-1.4-1.1
				c-1.3-0.5-2.2-1.2-2.2-2.4c0-1.4,1.2-2.4,3.1-2.4c0.9,0,1.6,0.2,2.1,0.4l-0.4,1.5c-0.3-0.2-0.9-0.4-1.7-0.4
				c-0.8,0-1.2,0.4-1.2,0.8c0,0.5,0.4,0.7,1.5,1.2c1.4,0.5,2.1,1.3,2.1,2.4c0,1.4-1,2.5-3.3,2.5c-0.9,0-1.8-0.3-2.3-0.5L236.7,96.6z
				"/>
		</g>
		<g id="XMLID_70_">
			<path id="XMLID_71_" class="st0" d="M247.3,90.4v8.1h-1.8v-8.1H247.3z"/>
		</g>
		<g id="XMLID_73_">
			<path id="XMLID_74_" class="st0" d="M252.9,91.9h-2.2v-1.5h6.2v1.5h-2.2v6.6h-1.8V91.9z"/>
		</g>
		<g id="XMLID_76_">
			<rect id="XMLID_77_" x="133.8" y="93.7" class="st0" width="2.8" height="1.5"/>
		</g>
	</g>
</g>
</svg>
